<?xml version="1.0" encoding="utf-8"?>
<!-- Generator: Adobe Illustrator 19.1.0, SVG Export Plug-In . SVG Version: 6.00 Build 0)  -->
<svg version="1.1" id="Layer_1" xmlns="http://www.w3.org/2000/svg" xmlns:xlink="http://www.w3.org/1999/xlink" x="0px" y="0px"
	 viewBox="295 175.9 870 361.1" style="enable-background:new 295 175.9 870 361.1;" xml:space="preserve">
<metadata><?xpacket begin="﻿" id="W5M0MpCehiHzreSzNTczkc9d"?>
<x:xmpmeta xmlns:x="adobe:ns:meta/" x:xmptk="Adobe XMP Core 5.6-c067 79.157747, 2015/03/30-23:40:42        ">
   <rdf:RDF xmlns:rdf="http://www.w3.org/1999/02/22-rdf-syntax-ns#">
      <rdf:Description rdf:about=""/>
   </rdf:RDF>
</x:xmpmeta>
                                                                                                    
                                                                                                    
                                                                                                    
                                                                                                    
                                                                                                    
                                                                                                    
                                                                                                    
                                                                                                    
                                                                                                    
                                                                                                    
                                                                                                    
                                                                                                    
                                                                                                    
                                                                                                    
                                                                                                    
                                                                                                    
                                                                                                    
                                                                                                    
                                                                                                    
                                                                                                    
                           
<?xpacket end="w"?></metadata>
<style type="text/css">
	.st0{fill:#FFFFFF;}
</style>
<polygon class="st0" points="337.8,448.7 379.3,448.7 379.3,273.8 338.8,273.8 299.3,302.2 299.3,348.8 337.8,320.9 "/>
<path class="st0" d="M515.8,285.9c-9.1-8.8-21.9-15.6-40.8-15.6c-18.9,0-31.7,6.8-40.8,15.6c-18.1,17.4-20.9,46.6-20.9,75.3
	c0,28.7,2.8,57.9,20.9,75.3c9.1,8.8,21.9,15.6,40.8,15.6c18.9,0,31.7-6.8,40.8-15.6c18.1-17.4,20.9-46.6,20.9-75.3
	C536.7,332.5,534,303.2,515.8,285.9z M499.8,366.2c0.1,15.3,0.3,36.3-9.3,46c-3.7,3.8-8.8,5.6-15.4,5.6s-11.7-1.8-15.4-5.6
	c-9.6-9.6-9.4-30.6-9.3-46v-5v-5c-0.1-15.3-0.3-36.3,9.3-46c3.7-3.8,8.8-5.6,15.4-5.6s11.7,1.8,15.4,5.6c9.6,9.6,9.4,30.6,9.3,46v5
	V366.2z"/>
<path class="st0" d="M694.3,448.7v-82.3h-85.6v82.3h-22.4V270.3h22.4v74.5h85.6v-74.5h22.4v178.5h-22.4V448.7z"/>
<path class="st0" d="M909,448.7V270.3h22.4v157.6h85.8v20.9H909V448.7z"/>
<path class="st0" d="M1068.4,290.9V349h83.1v21.1h-83.1v78.5H1046V270.3h115.5v20.6H1068.4z"/>
<polygon class="st0" points="823.6,179.9 698.3,530.2 698,531 701.2,532.1 826.5,181.8 826.8,181 "/>
<polygon class="st0" points="819.2,271.8 808.4,302.2 836.8,385.3 778.6,385.3 771.1,406.4 844.1,406.4 858.7,448.7 881.8,448.7 "/>
</svg>
